<?xml version="1.0" standalone="no"?>
<!DOCTYPE svg PUBLIC "-//W3C//DTD SVG 20010904//EN"
 "http://www.w3.org/TR/2001/REC-SVG-20010904/DTD/svg10.dtd">
<svg version="1.0" xmlns="http://www.w3.org/2000/svg"
 width="268.000000pt" height="404.000000pt" viewBox="0 0 268.000000 404.000000"
 preserveAspectRatio="xMidYMid meet">

<g transform="translate(0.000000,404.000000) scale(0.100000,-0.100000)"
fill="#000000" stroke="none">
<path d="M570 4010 c-109 -58 -207 -201 -230 -338 -19 -113 12 -158 135 -198
28 -9 51 -18 53 -19 1 -1 -6 -36 -18 -76 -65 -234 -42 -515 58 -718 42 -85
146 -203 223 -252 44 -29 61 -49 42 -49 -29 0 -485 -440 -555 -534 -172 -232
-234 -420 -184 -563 22 -65 93 -164 135 -189 34 -20 40 -34 16 -34 -28 0 -91
-38 -123 -75 -108 -123 -149 -353 -102 -574 38 -178 118 -293 247 -354 65 -31
74 -32 211 -35 122 -3 154 0 211 17 119 36 170 89 191 199 5 28 23 84 40 124
l31 74 92 -24 c166 -43 461 -42 628 3 48 12 55 12 66 -2 18 -24 60 -142 67
-187 8 -57 55 -127 102 -153 76 -42 154 -55 308 -51 133 3 145 5 201 33 71 35
149 111 188 183 45 84 77 227 77 349 0 230 -79 408 -206 460 -24 10 -44 20
-44 23 0 3 14 14 30 24 73 42 146 174 157 281 13 122 -116 384 -272 554 -53
58 -363 350 -436 411 l-58 49 46 26 c107 63 208 197 257 342 63 184 69 461 16
648 -11 38 -19 69 -17 70 1 1 27 10 57 19 115 37 151 88 133 193 -34 196 -197
373 -343 373 -94 0 -191 -63 -227 -147 -7 -18 -15 -33 -17 -33 -1 0 -27 8 -57
19 -95 32 -199 46 -359 46 -159 0 -248 -12 -349 -47 -30 -10 -57 -18 -61 -18
-4 0 -15 18 -25 39 -55 124 -212 175 -335 111z m580 -915 c0 -8 -7 -15 -15
-15 -8 0 -15 7 -15 15 0 8 7 15 15 15 8 0 15 -7 15 -15z m420 -4 c0 -14 -18
-23 -30 -16 -6 4 -8 11 -5 16 8 12 35 12 35 0z m-126 -172 c147 -27 300 -133
352 -244 29 -62 41 -169 25 -218 -14 -40 -91 -117 -118 -117 -16 0 -16 2 -3
11 13 9 13 10 0 6 -8 -2 -15 -10 -15 -18 0 -9 -30 -21 -90 -37 -162 -40 -441
-35 -583 12 -29 10 -50 22 -47 27 4 5 -1 6 -10 3 -11 -5 -31 9 -62 41 l-45 48
4 101 c4 89 8 109 34 156 36 67 125 143 220 186 110 51 220 65 338 43z m-929
-1907 c-3 -3 -17 0 -32 7 l-28 13 25 13 c23 12 26 11 33 -7 4 -12 5 -23 2 -26z
m1703 30 c9 -6 6 -12 -13 -20 -22 -10 -25 -9 -25 8 0 21 16 26 38 12z m-1719
-282 c68 -31 116 -75 167 -152 130 -195 142 -443 24 -500 -87 -42 -235 -49
-315 -14 -32 13 -37 19 -25 27 11 7 7 8 -14 3 -25 -6 -28 -5 -22 14 4 11 2 23
-3 27 -7 3 -8 0 -5 -9 10 -26 -9 -17 -39 19 -15 18 -39 65 -52 104 -21 58 -25
90 -25 179 0 120 14 182 55 244 49 73 162 99 254 58z m1871 0 c46 -23 83 -69
106 -131 23 -61 24 -253 1 -329 -48 -161 -164 -239 -335 -227 -79 5 -166 32
-156 48 3 5 -1 7 -8 4 -7 -3 -24 11 -37 33 -33 50 -40 161 -16 252 23 91 87
209 145 269 90 94 211 127 300 81z"/>
<path d="M1267 2886 c-65 -18 -98 -52 -104 -107 -8 -66 15 -88 102 -101 76
-11 86 -11 160 -3 88 10 93 13 104 50 18 65 -19 134 -83 154 -55 18 -130 20
-179 7z m78 -16 c-11 -5 -37 -11 -57 -15 -23 -3 -45 -16 -58 -32 -13 -17 -24
-23 -30 -17 -26 26 59 73 130 73 29 0 31 -2 15 -9z"/>
<path d="M1791 2594 c0 -11 3 -14 6 -6 3 7 2 16 -1 19 -3 4 -6 -2 -5 -13z"/>
<path d="M1515 2476 c-37 -57 -140 -59 -217 -5 -32 23 -34 23 -40 -5 -2 -13
12 -26 52 -49 72 -42 155 -45 194 -8 22 21 46 85 35 95 -2 2 -13 -10 -24 -28z"/>
<path d="M1770 2415 c-7 -9 -11 -17 -9 -20 3 -2 10 5 17 15 14 24 10 26 -8 5z"/>
<path d="M1168 2323 c7 -3 16 -2 19 1 4 3 -2 6 -13 5 -11 0 -14 -3 -6 -6z"/>
<path d="M508 103 c7 -3 16 -2 19 1 4 3 -2 6 -13 5 -11 0 -14 -3 -6 -6z"/>
<path d="M488 83 c7 -3 16 -2 19 1 4 3 -2 6 -13 5 -11 0 -14 -3 -6 -6z"/>
<path d="M2403 215 c-7 -8 -9 -16 -4 -19 5 -3 12 1 15 10 8 22 4 25 -11 9z"/>
<path d="M2035 110 c-16 -7 -17 -9 -3 -9 9 -1 20 4 23 9 7 11 7 11 -20 0z"/>
</g>
</svg>
